<svg class="icon" viewBox="0 0 1024 1024" version="1.1" xmlns="http://www.w3.org/2000/svg" style="height: 64px; width: 64px;">
    <path d="M516.098 58c147.278 0 266.67 119.398 266.67 266.683 0 98.537-53.438 184.591-132.913 230.762l0.004-0.012C809.06 612.26 923 764.38 923 943.113 923 959.62 909.62 973 893.115 973c-16.27 0-29.503-13.001-29.878-29.181l-0.008-0.706c0-194.264-157.474-351.746-351.729-351.746-192.312 0-348.576 154.348-351.682 345.93l-0.047 5.816c0 16.506-13.38 29.887-29.886 29.887C113.38 973 100 959.62 100 943.113c0-180.89 116.706-334.52 278.925-389.696l0.004 0.012c-77.589-46.631-129.502-131.626-129.502-228.746C249.427 177.398 368.82 58 516.097 58z m0 59.774c-114.268 0-206.9 92.636-206.9 206.91 0 114.272 92.632 206.909 206.9 206.909 114.267 0 206.9-92.637 206.9-206.91s-92.633-206.91-206.9-206.91z"></path>
</svg>
