<svg class="icon" viewBox="0 0 1024 1024" xmlns="http://www.w3.org/2000/svg" style="height: 64px; width: 64px;">
    <path d="M511.6 976c-36.8 0-80.9-12.7-127.5-36.7-44.1-22.7-88.5-54.4-128.3-91.7-42.4-39.6-78-84.2-103-129-29.1-52.1-43.8-103.5-43.8-152.8V220.9c0-27 22.3-47.4 51.8-47.4H183c0.7 0 78.5-0.6 150.4-32.9l0.6-0.3c61.4-26.1 103.3-49.8 121.4-61.3v-1.7l37-24.8h1c5.6-3 11.7-4.5 18.2-4.5 3.7 0 10 0 16.9 2.3 7.4 2.5 13.6 7 18.1 12.8l6.6 4.5c0.5 0.4 55.8 38.6 135.2 72.4 73.5 27.2 144.4 32.8 152.8 33.4h21.1c26.6 0 51.8 23.1 51.8 47.4V571c-1.2 48.2-16.9 98.6-46.5 149.9-25.5 44-61.3 88-103.6 127.3-39.8 36.9-83.8 68.4-127.2 91-46.2 24.1-89.5 36.8-125.2 36.8zM177 241.4v324.3c0 37.6 11.8 77.9 35.2 119.7 21.6 38.7 52.7 77.6 90 112.5 35.3 33 74.4 61 113 80.9 36.5 18.8 70.7 29.2 96.3 29.2 24.5 0 57.8-10.3 93.7-29 38.1-19.9 77-47.7 112.4-80.6 37.4-34.7 68.9-73.3 91-111.5 23.8-41.1 36.4-80.5 37.4-117.1V241.4h-6.9l-1-0.1c-3.5-0.2-86.1-5.1-174.2-37.9l-1.4-0.6C578 167 519.7 127 514.6 123.5l-2.8-1.9c-4.5 4.5-9.6 7.9-13.7 10.7-8 5.4-18.9 12-31.5 19.1-30.5 17.1-68 35.3-105.7 51.3-85.5 38.3-174.2 38.7-177.9 38.7h-6z" fill="#333333"></path>
    <path d="M469.4 640.1c-8.9 0-17.8-3.4-24.6-10.2l-95.6-95.6c-6.6-6.6-10.2-15.3-10.2-24.6s3.6-18 10.2-24.6c13.6-13.6 35.7-13.6 49.2 0l95.6 95.6c13.6 13.6 13.6 35.7 0 49.2a34.68 34.68 0 0 1-24.6 10.2z" fill="#333333"></path>
    <path d="M471.2 641.8c-8.9 0-17.8-3.4-24.6-10.2-13.6-13.6-13.6-35.7 0-49.2L686.9 342c13.6-13.6 35.7-13.6 49.2 0 13.6 13.6 13.6 35.7 0 49.2L495.8 631.6a34.68 34.68 0 0 1-24.6 10.2z" fill="#333333"></path>
</svg>
